<svg width="6068" height="1583" viewBox="0 0 6068 1583" fill="none" xmlns="http://www.w3.org/2000/svg">
<path d="M876.2 222H222V1135.3V1360.9H1315.4V1267.8V1189.5V222H876.2ZM277.9 842.7L682.9 686.9L277.9 531.1V436.7L787.3 637.9V735.7L277.9 936.9V842.7ZM1305.4 1189.5H876.2V1267.8H1099.5H1305.4V1350.9H232V1135.3H876.2V232H1305.4V1189.5Z" fill="white"/>
<path d="M2167.4 258.35C2118.1 236.35 2058.6 225.35 1988.9 225.35H1678.5V1021.25H1792.2V780.25H1988.8C2058.5 780.25 2118 769.05 2167.3 746.75C2216.6 724.45 2254.5 692.55 2281 651.25C2307.5 609.95 2320.8 560.45 2320.8 502.85C2320.8 445.25 2307.5 395.55 2281 353.95C2254.5 312.25 2216.6 280.35 2167.4 258.35ZM2150.9 634.75C2113.4 665.85 2058.2 681.35 1985.5 681.35H1792.2V324.35H1985.5C2058.3 324.35 2113.4 339.85 2150.9 370.95C2188.4 402.05 2207.2 445.95 2207.2 502.85C2207.2 559.75 2188.4 603.65 2150.9 634.75Z" fill="white"/>
<path d="M2688.1 225.45L2327.7 1021.35H2444.8L2532.2 822.35H2955.4L3042.8 1021.35H3162.2L2800.6 225.45H2688.1ZM2572.2 731.35L2743.8 340.85L2915.4 731.35H2572.2Z" fill="white"/>
<path d="M3851.2 818.45L3373.7 225.45H3280.5V1021.35H3394.2V428.25L3871.7 1021.35H3964.9V225.45H3851.2V818.45Z" fill="white"/>
<path d="M4763.7 275.45C4698.9 242.15 4624 225.45 4539.1 225.45H4203.7V1021.35H4539.1C4624 1021.35 4698.8 1004.65 4763.7 971.35C4828.5 938.05 4878.9 891.35 4914.9 831.45C4950.9 771.55 4968.9 702.25 4968.9 623.35C4968.9 544.55 4950.9 475.15 4914.9 415.25C4878.9 355.45 4828.5 308.85 4763.7 275.45ZM4815.4 779.75C4788.9 824.85 4751.5 859.95 4703.4 884.95C4655.3 909.95 4598.2 922.45 4532.3 922.45H4317.4V324.35H4532.3C4598.2 324.35 4655.3 336.85 4703.4 361.85C4751.5 386.85 4788.9 421.75 4815.4 466.45C4841.9 511.15 4855.2 563.45 4855.2 623.35C4855.2 682.55 4841.9 734.65 4815.4 779.75Z" fill="white"/>
<path d="M5726.1 1021.35H5845.5L5483.9 225.45H5371.3L5010.9 1021.35H5128L5215.4 822.35H5638.6L5726.1 1021.35ZM5255.5 731.35L5427.1 340.85L5598.7 731.35H5255.5Z" fill="white"/>
<path d="M1678.4 1198.15H1739.8V1357.45H1752.3V1198.15H1813.7V1186.85H1678.4V1198.15Z" fill="white"/>
<path d="M1978.6 1276.35H2069.5V1265.35H1978.6V1198.15H2080.2V1186.85H1966.2V1357.45H2083.9V1346.25H1978.6V1276.35Z" fill="white"/>
<path d="M2348.9 1294.75C2359.1 1290.15 2367 1283.55 2372.5 1275.05C2378 1266.55 2380.8 1256.35 2380.8 1244.45C2380.8 1232.25 2378 1221.95 2372.5 1213.35C2367 1204.85 2359.1 1198.25 2348.9 1193.75C2338.7 1189.25 2326.4 1186.95 2312.1 1186.95H2250.9V1357.55H2263.3V1301.75H2312C2317.8 1301.75 2323.3 1301.35 2328.4 1300.55L2369.2 1357.55H2383.3L2340.5 1297.85C2343.6 1296.95 2346.4 1295.85 2348.9 1294.75ZM2263.4 1290.65V1198.05H2312.1C2330.5 1198.05 2344.4 1202.05 2353.9 1210.15C2363.4 1218.15 2368.2 1229.65 2368.2 1244.35C2368.2 1258.95 2363.4 1270.35 2353.9 1278.45C2344.4 1286.55 2330.5 1290.65 2312.1 1290.65H2263.4Z" fill="white"/>
<path d="M2711.2 1186.85L2635.1 1318.75L2558.7 1186.85H2548.2V1357.45H2560.4V1211.95L2631.8 1334.75H2637.9L2709.3 1211.55L2709.5 1357.45H2721.7L2721.5 1186.85H2711.2Z" fill="white"/>
<path d="M2915.4 1186.85H2903V1357.45H2915.4V1186.85Z" fill="white"/>
<path d="M3223.1 1334.95L3107.2 1186.85H3096.7V1357.45H3109.1V1209.35L3225.3 1357.45H3235.6V1186.85H3223.1V1334.95Z" fill="white"/>
<path d="M3466.8 1186.85L3388.3 1357.45H3401.7L3423.5 1309.45H3522.4L3544.2 1357.45H3557.6L3479.1 1186.85H3466.8ZM3428.2 1298.95L3472.8 1200.55L3517.6 1298.95H3428.2Z" fill="white"/>
<path d="M3722.8 1346.25V1186.85H3710.4V1357.45H3821V1346.25H3722.8Z" fill="white"/>
</svg>

